<svg width="26" height="26" viewBox="0 0 26 26" fill="none" xmlns="http://www.w3.org/2000/svg">
<path fill-rule="evenodd" clip-rule="evenodd" d="M23.4137 0H7.15032C6.91365 0 6.72234 0.194946 6.72234 0.435146V2.17573V3.91632H3.29847C3.18463 3.91632 3.07592 3.96201 2.99588 4.04382L0 7.08984L0.605169 7.70514L3.47565 4.78661H6.72234V6.09205V7.39749H4.58242V8.26778H7.15032H10.1462C10.6183 8.26778 11.0022 8.65811 11.0022 9.13807C11.0022 9.37001 10.9132 9.58845 10.7509 9.75294C10.5887 9.91742 10.3739 10.0084 10.1462 10.0084H7.15032C7.09297 10.0084 7.03733 10.0201 6.98555 10.0423C6.93333 10.0645 6.88668 10.0963 6.84731 10.1363L5.56379 11.4413L6.16895 12.0566L6.72234 11.494V12.1841V13.9247H0.302584V14.795H7.15032H9.29024H21.2738H23.4137C23.6504 14.795 23.8417 14.6 23.8417 14.3598V12.1841V6.09205V3.91632V2.17573V0.435146C23.8417 0.194946 23.6504 0 23.4137 0ZM7.5783 4.35146H8.8079C8.65297 4.96241 8.17877 5.44412 7.5783 5.60208V4.35146ZM7.5783 12.6741V13.9247H8.8079C8.65297 13.3137 8.17877 12.832 7.5783 12.6741ZM22.9857 13.9247H21.7561C21.911 13.3137 22.3853 12.832 22.9857 12.6741V13.9247ZM20.8843 13.9247C21.0658 12.8338 21.9128 11.9722 22.9857 11.7881V6.48803C21.9128 6.30353 21.0653 5.44238 20.8843 4.35146H9.6797C9.49824 5.44238 8.65126 6.30397 7.5783 6.48803V7.39749H10.1462C11.0903 7.39749 11.8581 8.17814 11.8581 9.13807C11.8581 9.60238 11.6801 10.0393 11.3561 10.3682C11.0326 10.6972 10.6024 10.8787 10.1462 10.8787H7.5783V11.7881C8.65126 11.9726 9.49867 12.8338 9.6797 13.9247H20.8843ZM22.9857 5.60208C22.3853 5.44412 21.911 4.96241 21.7561 4.35146H22.9857V5.60208ZM21.2738 3.48117H22.9857V2.61088H7.5783V3.48117H9.29024H21.2738ZM22.9857 1.74059H7.5783V0.870293H22.9857V1.74059ZM12.7141 9.13808C12.7141 7.69818 13.8658 6.5272 15.282 6.5272C16.6982 6.5272 17.8499 7.69818 17.8499 9.13808C17.8499 10.578 16.6982 11.749 15.282 11.749C13.8658 11.749 12.7141 10.578 12.7141 9.13808ZM13.5701 9.13808C13.5701 10.098 14.3379 10.8787 15.282 10.8787C16.2261 10.8787 16.9939 10.098 16.9939 9.13808C16.9939 8.17814 16.2261 7.39749 15.282 7.39749C14.3379 7.39749 13.5701 8.17814 13.5701 9.13808ZM25.5536 16.1004H23.8417C23.605 16.1004 23.4137 16.2954 23.4137 16.5356H19.1339C19.02 16.5356 18.9113 16.5813 18.8313 16.6631L16.4204 19.1142L7.93267 17.6134C7.52566 17.5421 7.10966 17.6552 6.79253 17.9263C6.47625 18.197 6.29435 18.5938 6.29435 19.0146C6.29435 19.5181 6.56013 19.9889 6.98812 20.243L16.3246 25.7803C16.5424 25.9095 16.7855 25.9748 17.029 25.9743C17.243 25.9743 17.457 25.9243 17.6552 25.8238L22.2307 23.4979H23.4137C23.4137 23.7381 23.605 23.9331 23.8417 23.9331H25.5536C25.7903 23.9331 25.9816 23.7381 25.9816 23.4979V16.5356C25.9816 16.2954 25.7903 16.1004 25.5536 16.1004ZM23.4137 22.6276H22.1297C22.0634 22.6276 21.9975 22.6433 21.9384 22.6733L17.2721 25.0457C17.1069 25.1293 16.9139 25.1227 16.756 25.0288L7.41995 19.4915C7.25347 19.3927 7.15032 19.21 7.15032 19.0146C7.15032 18.8514 7.22094 18.6974 7.34377 18.5921C7.4666 18.4872 7.62752 18.4432 7.7863 18.4707L15.68 19.8666L15.3334 20.2191C15.0244 20.5337 14.854 20.9519 14.854 21.3966C14.854 22.3156 15.5893 23.0628 16.4923 23.0628C16.9302 23.0628 17.3415 22.8896 17.6509 22.5745L19.8644 20.3244L19.2593 19.7091L17.0457 21.9597C16.8998 22.1076 16.6986 22.1925 16.4923 22.1925C16.0609 22.1925 15.71 21.8356 15.71 21.3966C15.71 21.1842 15.7913 20.9841 15.939 20.8339L19.311 17.4059H23.4137V22.6276ZM24.2697 23.0628H25.1256V16.9707H24.2697V23.0628Z" fill="#0B69FF"/>
</svg>
