<svg width="25" height="25" viewBox="0 0 25 25" fill="none" xmlns="http://www.w3.org/2000/svg">
<path fill-rule="evenodd" clip-rule="evenodd" d="M18.8864 16.635H17.7007L17.2804 16.2298C18.7513 14.5187 19.6368 12.2974 19.6368 9.88091C19.6368 4.49265 15.2692 0.125 9.88091 0.125C4.49265 0.125 0.125 4.49265 0.125 9.88091C0.125 15.2692 4.49265 19.6368 9.88091 19.6368C12.2974 19.6368 14.5187 18.7513 16.2298 17.2804L16.635 17.7007V18.8864L22.6386 24.875L24.875 22.6386L18.8864 16.635ZM9.79857 16.6936C5.9944 16.6936 2.92357 13.6228 2.92357 9.81859C2.92357 6.01442 5.9944 2.94359 9.79857 2.94359C13.6027 2.94359 16.6736 6.01442 16.6736 9.81859C16.6736 13.6228 13.6027 16.6936 9.79857 16.6936Z" fill="#1D1D1D"/>
</svg>
