<svg width="8" height="10" viewBox="0 0 8 10" fill="none" xmlns="http://www.w3.org/2000/svg">
<path fill-rule="evenodd" clip-rule="evenodd" d="M7.5 3.5H6.1875V2.64286C6.1875 1.46 5.2075 0.5 4 0.5C2.7925 0.5 1.8125 1.46 1.8125 2.64286V3.5H0.5V9.5H7.5V3.5ZM2.6875 2.64282C2.6875 1.93139 3.27375 1.35711 4 1.35711C4.72625 1.35711 5.3125 1.93139 5.3125 2.64282V3.49997H2.6875V2.64282ZM6.625 8.64282H1.375V4.35711H6.625V8.64282ZM4 7.35718C4.48125 7.35718 4.875 6.97146 4.875 6.50003C4.875 6.02861 4.48125 5.64289 4 5.64289C3.51875 5.64289 3.125 6.02861 3.125 6.50003C3.125 6.97146 3.51875 7.35718 4 7.35718Z" fill="#1D1D1D"/>
</svg>
