<svg width="18" height="18" viewBox="0 0 18 18" fill="none" xmlns="http://www.w3.org/2000/svg">
<path fill-rule="evenodd" clip-rule="evenodd" d="M14.5255 12.7824H13.6075L13.2821 12.4687C14.4209 11.144 15.1065 9.42414 15.1065 7.55326C15.1065 3.38154 11.725 0 7.55326 0C3.38154 0 0 3.38154 0 7.55326C0 11.725 3.38154 15.1065 7.55326 15.1065C9.42414 15.1065 11.144 14.4209 12.4687 13.2821L12.7824 13.6075V14.5255L16.2686 18L18 16.2686L14.5255 12.7824ZM7.55403 13.1588C4.46765 13.1588 1.97624 10.6673 1.97624 7.58097C1.97624 4.49459 4.46765 2.00317 7.55403 2.00317C10.6404 2.00317 13.1318 4.49459 13.1318 7.58097C13.1318 10.6673 10.6404 13.1588 7.55403 13.1588Z" fill="#5F11D7"/>
</svg>
